<?xml version="1.0" encoding="UTF-8"?>
<svg id="Layer_1" data-name="Layer 1" xmlns="http://www.w3.org/2000/svg" viewBox="0 0 37.42 24.07">
  <path d="M31.26,11.91h-.05c.1.38.18.77.26,1.18,1.1,6.46-3.89,8.63-10.35,9.74-6.43,1.1-11.89.69-12.99-5.74-.08-.38-.13-.79-.13-1.2-.03.03-.05.03-.08.03-3.05.51-5.94-1.54-6.46-4.59-.54-3.07,1.51-5.97,4.59-6.48,2.08-.36,4.07.49,5.28,2,1.41-1.49,3.23-2.59,5.33-3.15t-.03-.05c-.13-.67.31-1.28.97-1.38.64-.13,1.28.33,1.38.97v.08c2.15-.15,4.23.28,6.05,1.18.67-1.82,2.25-3.28,4.33-3.64,3.05-.51,5.94,1.54,6.48,4.59.51,3.07-1.54,5.97-4.59,6.48Z" style="fill: #b8c6da; stroke: #b8c6da; stroke-miterlimit: 10; stroke-width: 1.17px;"/>
  <circle cx="6.98" cy="10.37" r="3.37" style="fill: #dfe5ee;"/>
  <circle cx="30.31" cy="6.38" r="3.37" style="fill: #dfe5ee;"/>
  <circle cx="14.58" cy="15.75" r=".97" style="fill: #444468;"/>
  <circle cx="24.93" cy="13.98" r=".97" style="fill: #444468;"/>
  <circle cx="14.06" cy="18.47" r="1.3" style="fill: #f7b8d1;"/>
  <circle cx="26.33" cy="16.37" r="1.3" style="fill: #f7b8d1;"/>
  <g>
    <circle cx="9.76" cy="9.93" r="1.57" style="fill: #b8c6da;"/>
    <circle cx="9.78" cy="12.23" r="1.57" style="fill: #b8c6da;"/>
  </g>
  <g>
    <circle cx="27.87" cy="7.05" r="1.57" style="fill: #b8c6da;"/>
    <circle cx="28.58" cy="9.23" r="1.57" style="fill: #b8c6da;"/>
  </g>
  <path d="M22.42,16.55c.29,1.68-.65,2.45-1.92,2.67s-2.41-.2-2.7-1.88c-.29-1.68.51-3.22,1.79-3.43s2.54.97,2.83,2.65Z" style="fill: #444468;"/>
</svg>